<svg width="120" height="126" viewBox="0 0 120 126" fill="none" xmlns="http://www.w3.org/2000/svg">
<g filter="url(#filter0_f)">
<circle cx="35.5" cy="31.5" r="10.5" fill="#CB313A"/>
</g>
<rect x="32" y="25" width="73" height="91" rx="8" fill="url(#paint0_linear)"/>
<rect x="36" y="30" width="64" height="74" rx="2" fill="#292135"/>
<circle cx="69" cy="110" r="3" fill="#292135"/>
<path fill-rule="evenodd" clip-rule="evenodd" d="M112.08 75.6685L116.214 71.5753L107.059 62.3293L110.331 59.0895L97.1608 56.1098L100.01 69.3093L102.925 66.4225L112.08 75.6685Z" fill="url(#paint1_linear)"/>
<rect x="43" y="67" width="51" height="2.6129" fill="url(#paint2_linear)"/>
<rect x="43" y="73.0967" width="51" height="2.6129" fill="url(#paint3_linear)"/>
<rect x="43" y="79.1934" width="51" height="2.6129" fill="url(#paint4_linear)"/>
<rect x="43" y="85.2905" width="51" height="2.6129" fill="url(#paint5_linear)"/>
<rect x="43" y="91.3872" width="51" height="2.6129" fill="url(#paint6_linear)"/>
<circle cx="54" cy="45" r="4" fill="#CB313A"/>
<path d="M54 52C49.0294 52 45 56.0294 45 61H63C63 56.0294 58.9706 52 54 52Z" fill="#CB313A"/>
<path opacity="0.2" d="M29.6814 112.729C35.6735 102.314 41.2207 76.7877 15.4731 58C7.6244 80.5116 5.84851 95.7626 29.6814 112.729Z" fill="url(#paint7_linear)"/>
<path d="M26 114C27.6667 105.333 25.3 86.3 2.5 79.5C2.5 97 5 108 26 114Z" fill="url(#paint8_linear)"/>
<path d="M25.4429 116.046C22.7543 111.133 13.9016 102.78 0 108.672C7.07514 117.232 12.7452 121.602 25.4429 116.046Z" fill="url(#paint9_linear)"/>
<defs>
<filter id="filter0_f" x="4" y="0" width="63" height="63" filterUnits="userSpaceOnUse" color-interpolation-filters="sRGB">
<feFlood flood-opacity="0" result="BackgroundImageFix"/>
<feBlend mode="normal" in="SourceGraphic" in2="BackgroundImageFix" result="shape"/>
<feGaussianBlur stdDeviation="10.5" result="effect1_foregroundBlur"/>
</filter>
<linearGradient id="paint0_linear" x1="105" y1="116" x2="32" y2="116" gradientUnits="userSpaceOnUse">
<stop stop-color="#292135"/>
<stop offset="1" stop-color="#CB313A"/>
</linearGradient>
<linearGradient id="paint1_linear" x1="112.895" y1="72.0007" x2="97.1608" y2="56.1098" gradientUnits="userSpaceOnUse">
<stop stop-color="#292135"/>
<stop offset="1" stop-color="#CB313A" stop-opacity="0.45"/>
</linearGradient>
<linearGradient id="paint2_linear" x1="94" y1="69.6129" x2="43" y2="69.6129" gradientUnits="userSpaceOnUse">
<stop stop-color="#292135"/>
<stop offset="1" stop-color="#CB313A"/>
</linearGradient>
<linearGradient id="paint3_linear" x1="94" y1="75.7096" x2="43" y2="75.7096" gradientUnits="userSpaceOnUse">
<stop stop-color="#292135"/>
<stop offset="1" stop-color="#CB313A"/>
</linearGradient>
<linearGradient id="paint4_linear" x1="94" y1="81.8063" x2="43" y2="81.8063" gradientUnits="userSpaceOnUse">
<stop stop-color="#292135"/>
<stop offset="1" stop-color="#CB313A"/>
</linearGradient>
<linearGradient id="paint5_linear" x1="94" y1="87.9034" x2="43" y2="87.9034" gradientUnits="userSpaceOnUse">
<stop stop-color="#292135"/>
<stop offset="1" stop-color="#CB313A"/>
</linearGradient>
<linearGradient id="paint6_linear" x1="94" y1="94.0001" x2="43" y2="94.0001" gradientUnits="userSpaceOnUse">
<stop stop-color="#292135"/>
<stop offset="1" stop-color="#CB313A"/>
</linearGradient>
<linearGradient id="paint7_linear" x1="30.216" y1="112.915" x2="-8.57099e-05" y2="102.38" gradientUnits="userSpaceOnUse">
<stop stop-color="#292135"/>
<stop offset="1" stop-color="#CB313A"/>
</linearGradient>
<linearGradient id="paint8_linear" x1="26.4233" y1="114" x2="2.5" y2="114" gradientUnits="userSpaceOnUse">
<stop stop-color="#292135"/>
<stop offset="1" stop-color="#CB313A"/>
</linearGradient>
<linearGradient id="paint9_linear" x1="25.6499" y1="115.875" x2="13.9481" y2="125.547" gradientUnits="userSpaceOnUse">
<stop stop-color="#292135"/>
<stop offset="1" stop-color="#CB313A"/>
</linearGradient>
</defs>
</svg>
