<svg width="386" height="291" viewBox="0 0 386 291" fill="none" xmlns="http://www.w3.org/2000/svg">
<path d="M0 290.5C3.33509e-06 252.351 7.50108 214.576 22.0749 179.33C36.6488 144.085 58.0101 112.061 84.9391 85.0854C111.868 58.11 143.837 36.712 179.022 22.113C214.206 7.51399 251.917 -4.9969e-06 290 0C328.083 4.9969e-06 365.794 7.51401 400.978 22.113C436.163 36.712 468.132 58.1101 495.061 85.0855C521.99 112.061 543.351 144.085 557.925 179.33C572.499 214.576 580 252.351 580 290.5L493 290.5C493 263.796 487.749 237.353 477.548 212.681C467.346 188.01 452.393 165.593 433.543 146.71C414.692 127.827 392.314 112.848 367.685 102.629C343.056 92.4098 316.658 87.15 290 87.15C263.342 87.15 236.944 92.4098 212.315 102.629C187.686 112.848 165.308 127.827 146.457 146.71C127.607 165.593 112.654 188.01 102.452 212.681C92.2508 237.353 87 263.796 87 290.5H0Z" fill="url(#paint0_linear)"/>
<defs>
<linearGradient id="paint0_linear" x1="290" y1="291" x2="290" y2="3.46899e-05" gradientUnits="userSpaceOnUse">
<stop stop-color="#332A40" stop-opacity="0"/>
<stop offset="1" stop-color="#332A40"/>
</linearGradient>
</defs>
</svg>
