<svg width="17" height="17" viewBox="0 0 17 17" fill="none" xmlns="http://www.w3.org/2000/svg">
<path d="M16.5563 12.4695L14.1793 10.0984C13.3304 9.25156 11.8872 9.59029 11.5476 10.6912C11.2929 11.4533 10.444 11.8767 9.67992 11.7073C7.98204 11.2839 5.6899 9.08219 5.26543 7.30386C5.01075 6.54172 5.52012 5.69489 6.28416 5.44085C7.38778 5.10212 7.72736 3.66252 6.87842 2.81569L4.50139 0.444583C3.82224 -0.148194 2.80351 -0.148194 2.20925 0.444583L0.59627 2.05355C-1.01671 3.7472 0.766058 8.23537 4.75607 12.2154C8.74608 16.1955 13.2455 18.0585 14.9433 16.3649L16.5563 14.7559C17.1506 14.0785 17.1506 13.0623 16.5563 12.4695Z" fill="#CB313A"/>
</svg>
