<svg width="139" height="29" viewBox="0 0 139 29" fill="none" xmlns="http://www.w3.org/2000/svg">
<path fill-rule="evenodd" clip-rule="evenodd" d="M10.0557 7.76758C8.95109 7.76758 8.05566 8.66301 8.05566 9.76758V26.712C8.05566 27.8166 8.95109 28.712 10.0557 28.712H27.0001C28.1047 28.712 29.0001 27.8166 29.0001 26.712V9.76758C29.0001 8.66301 28.1047 7.76758 27.0001 7.76758H10.0557ZM14.889 12.6009C13.7844 12.6009 12.889 13.4963 12.889 14.6009V21.8787C12.889 22.9833 13.7844 23.8787 14.889 23.8787H22.1668C23.2713 23.8787 24.1668 22.9833 24.1668 21.8787V14.6009C24.1668 13.4963 23.2713 12.6009 22.1668 12.6009H14.889Z" fill="#CB313A"/>
<path fill-rule="evenodd" clip-rule="evenodd" d="M2 0C0.895431 0 0 0.895433 0 2V18.6709C0 19.7754 0.895433 20.6709 2 20.6709H4.13418V6.13398C4.13418 5.02941 5.02961 4.13398 6.13418 4.13398H20.6709V2C20.6709 0.895431 19.7754 0 18.6709 0H2Z" fill="#CB313A"/>
<path d="M40.4297 27.7109V8.28125H44.7188V24.8047H49.1719V27.7109H40.4297ZM56.3906 27.9805C55.3125 27.9805 54.3906 27.8398 53.625 27.5586C52.8672 27.2695 52.2617 26.8438 51.8086 26.2812C51.3633 25.7109 51.0391 25.043 50.8359 24.2773C50.6406 23.5117 50.543 22.6094 50.543 21.5703V14.3984C50.543 13.3516 50.6406 12.4492 50.8359 11.6914C51.0391 10.9258 51.3633 10.2617 51.8086 9.69922C52.2617 9.13672 52.8672 8.71484 53.625 8.43359C54.3906 8.15234 55.3125 8.01172 56.3906 8.01172C58.4922 8.01172 59.9961 8.55078 60.9023 9.62891C61.8164 10.6992 62.2734 12.2891 62.2734 14.3984V21.5703C62.2734 23.6797 61.8164 25.2773 60.9023 26.3633C59.9961 27.4414 58.4922 27.9805 56.3906 27.9805ZM55.7227 24.8047C55.9102 24.8984 56.1328 24.9453 56.3906 24.9453C56.6484 24.9453 56.8711 24.9023 57.0586 24.8164C57.2461 24.7227 57.3906 24.6094 57.4922 24.4766C57.5938 24.3359 57.6719 24.1562 57.7266 23.9375C57.7891 23.7188 57.8281 23.5156 57.8438 23.3281C57.8594 23.1328 57.8672 22.9023 57.8672 22.6367V13.3203C57.8672 13.0625 57.8594 12.8398 57.8438 12.6523C57.8281 12.457 57.7891 12.2539 57.7266 12.043C57.6719 11.8242 57.5938 11.6484 57.4922 11.5156C57.3906 11.3828 57.2461 11.2734 57.0586 11.1875C56.8711 11.0938 56.6484 11.0469 56.3906 11.0469C56.1328 11.0469 55.9102 11.0938 55.7227 11.1875C55.543 11.2734 55.4023 11.3828 55.3008 11.5156C55.1992 11.6406 55.1211 11.8164 55.0664 12.043C55.0117 12.2617 54.9766 12.4609 54.9609 12.6406C54.9531 12.8203 54.9492 13.0469 54.9492 13.3203V22.6367C54.9492 22.9102 54.9531 23.1406 54.9609 23.3281C54.9766 23.5078 55.0117 23.7109 55.0664 23.9375C55.1211 24.1562 55.1992 24.332 55.3008 24.4648C55.4023 24.5977 55.543 24.7109 55.7227 24.8047ZM69.9258 27.9922C68.9414 27.9922 68.0977 27.8359 67.3945 27.5234C66.6992 27.2031 66.1484 26.7383 65.7422 26.1289C65.3359 25.5195 65.0391 24.8164 64.8516 24.0195C64.6719 23.2227 64.582 22.3008 64.582 21.2539V14.7969C64.582 13.9375 64.6406 13.168 64.7578 12.4883C64.8828 11.8086 65.082 11.1836 65.3555 10.6133C65.6367 10.043 66 9.57031 66.4453 9.19531C66.8906 8.82031 67.4453 8.53125 68.1094 8.32812C68.7734 8.11719 69.543 8.01172 70.418 8.01172C71.2617 8.01172 72.0078 8.10156 72.6562 8.28125C73.3047 8.46094 73.8438 8.71094 74.2734 9.03125C74.7109 9.35156 75.0664 9.75391 75.3398 10.2383C75.6133 10.7148 75.8086 11.2383 75.9258 11.8086C76.043 12.3711 76.1016 13.0039 76.1016 13.707V14.9375H71.9062V13.3789C71.9062 13.082 71.8984 12.8398 71.8828 12.6523C71.875 12.4648 71.8438 12.2578 71.7891 12.0312C71.7422 11.8047 71.668 11.6289 71.5664 11.5039C71.4727 11.3789 71.332 11.2734 71.1445 11.1875C70.9648 11.0938 70.7422 11.0469 70.4766 11.0469C70.2031 11.0469 69.9688 11.0977 69.7734 11.1992C69.5859 11.3008 69.4414 11.4258 69.3398 11.5742C69.2383 11.7148 69.1562 11.9062 69.0938 12.1484C69.0391 12.3906 69.0039 12.6133 68.9883 12.8164C68.9805 13.0117 68.9766 13.2539 68.9766 13.543V22.4375C68.9766 23.2109 69.0898 23.8242 69.3164 24.2773C69.5508 24.7227 69.9727 24.9453 70.582 24.9453C71.707 24.9453 72.2695 24.082 72.2695 22.3555V20.1758H70.5117V17.6094H76.1484V27.7109H73.3008L73.0547 26.082C72.4844 27.3555 71.4414 27.9922 69.9258 27.9922ZM84.375 27.9805C83.2969 27.9805 82.375 27.8398 81.6094 27.5586C80.8516 27.2695 80.2461 26.8438 79.793 26.2812C79.3477 25.7109 79.0234 25.043 78.8203 24.2773C78.625 23.5117 78.5273 22.6094 78.5273 21.5703V14.3984C78.5273 13.3516 78.625 12.4492 78.8203 11.6914C79.0234 10.9258 79.3477 10.2617 79.793 9.69922C80.2461 9.13672 80.8516 8.71484 81.6094 8.43359C82.375 8.15234 83.2969 8.01172 84.375 8.01172C86.4766 8.01172 87.9805 8.55078 88.8867 9.62891C89.8008 10.6992 90.2578 12.2891 90.2578 14.3984V21.5703C90.2578 23.6797 89.8008 25.2773 88.8867 26.3633C87.9805 27.4414 86.4766 27.9805 84.375 27.9805ZM83.707 24.8047C83.8945 24.8984 84.1172 24.9453 84.375 24.9453C84.6328 24.9453 84.8555 24.9023 85.043 24.8164C85.2305 24.7227 85.375 24.6094 85.4766 24.4766C85.5781 24.3359 85.6562 24.1562 85.7109 23.9375C85.7734 23.7188 85.8125 23.5156 85.8281 23.3281C85.8438 23.1328 85.8516 22.9023 85.8516 22.6367V13.3203C85.8516 13.0625 85.8438 12.8398 85.8281 12.6523C85.8125 12.457 85.7734 12.2539 85.7109 12.043C85.6562 11.8242 85.5781 11.6484 85.4766 11.5156C85.375 11.3828 85.2305 11.2734 85.043 11.1875C84.8555 11.0938 84.6328 11.0469 84.375 11.0469C84.1172 11.0469 83.8945 11.0938 83.707 11.1875C83.5273 11.2734 83.3867 11.3828 83.2852 11.5156C83.1836 11.6406 83.1055 11.8164 83.0508 12.043C82.9961 12.2617 82.9609 12.4609 82.9453 12.6406C82.9375 12.8203 82.9336 13.0469 82.9336 13.3203V22.6367C82.9336 22.9102 82.9375 23.1406 82.9453 23.3281C82.9609 23.5078 82.9961 23.7109 83.0508 23.9375C83.1055 24.1562 83.1836 24.332 83.2852 24.4648C83.3867 24.5977 83.5273 24.7109 83.707 24.8047ZM94.6289 27.7109V11.457H91.6406V8.28125H101.883V11.457H98.9297V27.7109H94.6289ZM106.008 27.7109V19.7656L102.305 8.28125H106.348L108.199 14.4336L109.875 8.28125H113.777L110.121 19.7656V27.7109H106.008ZM119.695 16.4492H121.066C121.84 16.4492 122.352 16.2539 122.602 15.8633C122.859 15.4648 122.988 14.793 122.988 13.8477C122.988 13.5117 122.977 13.2305 122.953 13.0039C122.938 12.7773 122.891 12.5469 122.812 12.3125C122.742 12.0781 122.637 11.8945 122.496 11.7617C122.363 11.6211 122.176 11.5078 121.934 11.4219C121.691 11.3359 121.398 11.293 121.055 11.293H119.695V16.4492ZM115.406 27.7109V8.28125H121.887C123.605 8.28125 124.891 8.76172 125.742 9.72266C126.594 10.6836 127.02 12.082 127.02 13.918C127.02 14.6445 126.953 15.2969 126.82 15.875C126.695 16.4531 126.508 16.9414 126.258 17.3398C126.008 17.7383 125.719 18.0781 125.391 18.3594C125.062 18.6328 124.68 18.8477 124.242 19.0039C123.805 19.1602 123.355 19.2734 122.895 19.3438C122.441 19.4062 121.938 19.4375 121.383 19.4375H119.695V27.7109H115.406ZM129.023 27.7109V8.28125H137.754V11.2109H133.312V16.0156H136.699V19.0039H133.312V24.8047H137.801V27.7109H129.023Z" fill="white"/>
</svg>
