<svg width="178" height="139" viewBox="0 0 178 139" fill="none" xmlns="http://www.w3.org/2000/svg">
<path d="M0 15.3721H178" stroke="#342C41"/>
<path d="M0 27.6538H178" stroke="#342C41"/>
<path d="M0 39.936H178" stroke="#342C41"/>
<path d="M0 52.2178H178" stroke="#342C41"/>
<path d="M0 64.5H178" stroke="#342C41"/>
<path d="M0 76.7817H178" stroke="#342C41"/>
<path d="M0 89.064H178" stroke="#342C41"/>
<path d="M0 101.346H178" stroke="#342C41"/>
<path d="M0 113.628H178" stroke="#342C41"/>
<g filter="url(#filter0_f)">
<circle cx="40.5" cy="101.5" r="13.5" fill="#CB313A"/>
</g>
<g filter="url(#filter1_f)">
<circle cx="86" cy="102" r="5" fill="#CB313A"/>
</g>
<g filter="url(#filter2_f)">
<circle cx="106" cy="88" r="5" fill="#CB313A"/>
</g>
<g filter="url(#filter3_f)">
<circle cx="124" cy="69" r="5" fill="#CB313A"/>
</g>
<g filter="url(#filter4_f)">
<circle cx="144" cy="49" r="5" fill="#CB313A"/>
</g>
<path fill-rule="evenodd" clip-rule="evenodd" d="M58.5156 0H24.4844V78.9445H11L41.5 113.965L72 78.9445H58.5156V0Z" fill="url(#paint0_linear)"/>
<rect x="79" y="81" width="14" height="21" fill="url(#paint1_linear)"/>
<rect x="99" y="47" width="14" height="55" fill="url(#paint2_linear)"/>
<rect x="117" y="36" width="14" height="66" fill="url(#paint3_linear)"/>
<rect x="137" y="11" width="14" height="91" fill="url(#paint4_linear)"/>
<path d="M76 70L87.3607 64.5455L94.9344 44.3636H114.41L128.475 25.2727L137.672 16L161 44.3636" stroke="url(#paint5_linear)" stroke-width="2"/>
<defs>
<filter id="filter0_f" x="3" y="64" width="75" height="75" filterUnits="userSpaceOnUse" color-interpolation-filters="sRGB">
<feFlood flood-opacity="0" result="BackgroundImageFix"/>
<feBlend mode="normal" in="SourceGraphic" in2="BackgroundImageFix" result="shape"/>
<feGaussianBlur stdDeviation="12" result="effect1_foregroundBlur"/>
</filter>
<filter id="filter1_f" x="73" y="89" width="26" height="26" filterUnits="userSpaceOnUse" color-interpolation-filters="sRGB">
<feFlood flood-opacity="0" result="BackgroundImageFix"/>
<feBlend mode="normal" in="SourceGraphic" in2="BackgroundImageFix" result="shape"/>
<feGaussianBlur stdDeviation="4" result="effect1_foregroundBlur"/>
</filter>
<filter id="filter2_f" x="93" y="75" width="26" height="26" filterUnits="userSpaceOnUse" color-interpolation-filters="sRGB">
<feFlood flood-opacity="0" result="BackgroundImageFix"/>
<feBlend mode="normal" in="SourceGraphic" in2="BackgroundImageFix" result="shape"/>
<feGaussianBlur stdDeviation="4" result="effect1_foregroundBlur"/>
</filter>
<filter id="filter3_f" x="111" y="56" width="26" height="26" filterUnits="userSpaceOnUse" color-interpolation-filters="sRGB">
<feFlood flood-opacity="0" result="BackgroundImageFix"/>
<feBlend mode="normal" in="SourceGraphic" in2="BackgroundImageFix" result="shape"/>
<feGaussianBlur stdDeviation="4" result="effect1_foregroundBlur"/>
</filter>
<filter id="filter4_f" x="131" y="36" width="26" height="26" filterUnits="userSpaceOnUse" color-interpolation-filters="sRGB">
<feFlood flood-opacity="0" result="BackgroundImageFix"/>
<feBlend mode="normal" in="SourceGraphic" in2="BackgroundImageFix" result="shape"/>
<feGaussianBlur stdDeviation="4" result="effect1_foregroundBlur"/>
</filter>
<linearGradient id="paint0_linear" x1="41.5" y1="9.49708" x2="41.5" y2="113.965" gradientUnits="userSpaceOnUse">
<stop stop-color="#292135"/>
<stop offset="1" stop-color="#CB313A" stop-opacity="0.45"/>
</linearGradient>
<linearGradient id="paint1_linear" x1="86" y1="82.75" x2="86" y2="102" gradientUnits="userSpaceOnUse">
<stop stop-color="#292135"/>
<stop offset="1" stop-color="#CB313A" stop-opacity="0.45"/>
</linearGradient>
<linearGradient id="paint2_linear" x1="106" y1="51.5833" x2="106" y2="102" gradientUnits="userSpaceOnUse">
<stop stop-color="#292135"/>
<stop offset="1" stop-color="#CB313A" stop-opacity="0.45"/>
</linearGradient>
<linearGradient id="paint3_linear" x1="124" y1="41.5" x2="124" y2="102" gradientUnits="userSpaceOnUse">
<stop stop-color="#292135"/>
<stop offset="1" stop-color="#CB313A" stop-opacity="0.45"/>
</linearGradient>
<linearGradient id="paint4_linear" x1="144" y1="18.5833" x2="144" y2="102" gradientUnits="userSpaceOnUse">
<stop stop-color="#292135"/>
<stop offset="1" stop-color="#CB313A" stop-opacity="0.45"/>
</linearGradient>
<linearGradient id="paint5_linear" x1="76" y1="70" x2="181.125" y2="51.7209" gradientUnits="userSpaceOnUse">
<stop stop-color="#292135"/>
<stop offset="1" stop-color="#CB313A" stop-opacity="0.45"/>
</linearGradient>
</defs>
</svg>
