<svg width="16" height="16" viewBox="0 0 16 16" fill="none" xmlns="http://www.w3.org/2000/svg">
<path d="M8.14125 10.2979C8.00123 10.4387 7.92275 10.6292 7.92302 10.8278C7.92329 11.0264 8.00229 11.2167 8.14269 11.3571C8.28309 11.4975 8.47344 11.5765 8.672 11.5768C8.87056 11.577 9.06112 11.4986 9.20191 11.3585L12.0303 8.53011C12.171 8.38946 12.25 8.19869 12.25 7.99978C12.25 7.80087 12.171 7.61011 12.0303 7.46946L9.20191 4.64105C9.06125 4.5004 8.87049 4.42139 8.67158 4.42139C8.47267 4.42139 8.2819 4.5004 8.14125 4.64105C8.0006 4.78171 7.92158 4.97247 7.92158 5.17138C7.92158 5.37029 8.0006 5.56106 8.14125 5.70171L9.68934 7.2498H1.5C1.30109 7.2498 1.11032 7.32882 0.96967 7.46947C0.829018 7.61012 0.75 7.80089 0.75 7.9998C0.75 8.19871 0.829018 8.38947 0.96967 8.53013C1.11032 8.67078 1.30109 8.7498 1.5 8.7498H9.68934L8.14125 10.2979Z" fill="#CB313A"/>
<path d="M14 0.75H7C6.66848 0.75 6.35054 0.881696 6.11612 1.11612C5.8817 1.35054 5.75 1.66848 5.75 2V3C5.75 3.19891 5.82902 3.38968 5.96967 3.53033C6.11032 3.67098 6.30109 3.75 6.5 3.75C6.69891 3.75 6.88968 3.67098 7.03033 3.53033C7.17098 3.38968 7.25 3.19891 7.25 3V2.25H13.75V13.75H7.25V13C7.25 12.8011 7.17098 12.6103 7.03033 12.4697C6.88968 12.329 6.69891 12.25 6.5 12.25C6.30109 12.25 6.11032 12.329 5.96967 12.4697C5.82902 12.6103 5.75 12.8011 5.75 13V14C5.75 14.3315 5.8817 14.6495 6.11612 14.8839C6.35054 15.1183 6.66848 15.25 7 15.25H14C14.3315 15.25 14.6495 15.1183 14.8839 14.8839C15.1183 14.6495 15.25 14.3315 15.25 14V2C15.25 1.66848 15.1183 1.35054 14.8839 1.11612C14.6495 0.881696 14.3315 0.75 14 0.75Z" fill="#CB313A"/>
</svg>
