<svg width="18" height="24" viewBox="0 0 18 24" fill="none" xmlns="http://www.w3.org/2000/svg">
<g clip-path="url(#clip0)">
<path d="M9.30062 12.5438C11.4239 12.5438 13.1452 10.7947 13.1452 8.63713C13.1452 6.47954 11.4239 4.73047 9.30062 4.73047C7.17733 4.73047 5.45605 6.47954 5.45605 8.63713C5.45605 10.7947 7.17733 12.5438 9.30062 12.5438Z" fill="#CB313A"/>
<path d="M9.30052 23.1811C9.30052 23.1811 17.8003 13.3909 17.8003 8.63702C17.8003 3.8596 13.9789 0 9.30052 0C4.62219 0 0.800781 3.8596 0.800781 8.63702C0.800781 13.4144 9.30052 23.1811 9.30052 23.1811ZM9.30052 2.68289C12.5429 2.68289 15.16 5.34225 15.16 8.63702C15.16 11.9318 12.5429 14.5912 9.30052 14.5912C6.05811 14.5912 3.44103 11.9318 3.44103 8.63702C3.44103 5.34225 6.05811 2.68289 9.30052 2.68289Z" fill="#CB313A"/>
</g>
<defs>
<clipPath id="clip0">
<rect width="16.9995" height="23.1811" fill="white" transform="translate(0.800781)"/>
</clipPath>
</defs>
</svg>
