<svg width="205" height="206" viewBox="0 0 205 206" fill="none" xmlns="http://www.w3.org/2000/svg">
<path d="M205 6.10352e-05C205 27.0524 199.685 53.8398 189.357 78.8328C179.03 103.826 163.893 126.535 144.81 145.664C125.728 164.793 103.074 179.967 78.1414 190.319C53.209 200.672 26.4866 206 -0.500015 206C-27.4867 206 -54.209 200.672 -79.1415 190.319C-104.074 179.967 -126.728 164.793 -145.81 145.664C-164.893 126.535 -180.03 103.826 -190.357 78.8328C-200.685 53.8398 -206 27.0523 -206 3.59308e-05L-144.35 6.10587e-05C-144.35 18.9367 -140.629 37.6878 -133.4 55.183C-126.171 72.6781 -115.575 88.5746 -102.217 101.965C-88.8596 115.355 -73.0017 125.977 -55.549 133.223C-38.0964 140.47 -19.3907 144.2 -0.500021 144.2C18.3906 144.2 37.0963 140.47 54.549 133.223C72.0017 125.977 87.8596 115.355 101.217 101.965C114.575 88.5746 125.171 72.6781 132.4 55.183C139.629 37.6879 143.35 18.9367 143.35 6.64248e-05L205 6.10352e-05Z" fill="url(#paint0_linear)"/>
<defs>
<linearGradient id="paint0_linear" x1="-0.500012" y1="-0.354521" x2="-0.499994" y2="206" gradientUnits="userSpaceOnUse">
<stop stop-color="#332A40" stop-opacity="0"/>
<stop offset="1" stop-color="#332A40"/>
</linearGradient>
</defs>
</svg>
