<svg width="20" height="14" viewBox="0 0 20 14" fill="none" xmlns="http://www.w3.org/2000/svg">
<path d="M18.0581 0H1.92013C1.61799 0 1.33735 0.0584045 1.07861 0.174834L9.98932 6.67972L18.8996 0.174834C18.6409 0.0584045 18.3817 0 18.0581 0Z" fill="#CB313A"/>
<path d="M10.5933 8.46649C10.4205 8.60226 10.2048 8.66066 9.98904 8.66066C9.77329 8.66066 9.55754 8.60226 9.38477 8.46649L0 1.6123C0 1.65099 0 1.67071 0 1.72873V12.2726C0 13.2242 0.863006 14.0009 1.92027 14.0009H18.0801C19.1374 14.0009 20.0004 13.2242 20.0004 12.2726V1.72873C20.0004 1.69005 20.0004 1.67033 20.0004 1.6123L10.5933 8.46649Z" fill="#CB313A"/>
</svg>
