<svg width="141" height="48" viewBox="0 0 141 48" fill="none" xmlns="http://www.w3.org/2000/svg">
<path fill-rule="evenodd" clip-rule="evenodd" d="M1.71145 0C0.766244 0 0 0.766245 0 1.71145V32.1729C0 33.1182 0.766245 33.8844 1.71145 33.8844H6.77679V8.48769C6.77679 7.54248 7.54303 6.77624 8.48824 6.77624H33.8844V1.71145C33.8844 0.766244 33.1182 0 32.1729 0H1.71145Z" fill="#CB313A"/>
<path d="M57.5373 29.6797V12.3807H60.2292L63.7871 20.6859V12.3807H66.9589V29.6797H64.3713L60.803 20.7276V29.6797H57.5373ZM74.4607 29.9197C73.5008 29.9197 72.68 29.7945 71.9983 29.5441C71.3236 29.2867 70.7846 28.9076 70.3811 28.4068C69.9846 27.899 69.696 27.3043 69.5151 26.6226C69.3412 25.941 69.2543 25.1376 69.2543 24.2125V17.8271C69.2543 16.895 69.3412 16.0916 69.5151 15.4169C69.696 14.7352 69.9846 14.144 70.3811 13.6432C70.7846 13.1424 71.3236 12.7667 71.9983 12.5163C72.68 12.2659 73.5008 12.1407 74.4607 12.1407C76.3318 12.1407 77.6708 12.6207 78.4776 13.5806C79.2915 14.5335 79.6984 15.949 79.6984 17.8271V24.2125C79.6984 26.0905 79.2915 27.513 78.4776 28.4798C77.6708 29.4397 76.3318 29.9197 74.4607 29.9197ZM73.866 27.0921C74.0329 27.1756 74.2311 27.2173 74.4607 27.2173C74.6902 27.2173 74.8885 27.1791 75.0554 27.1026C75.2223 27.0191 75.351 26.9182 75.4414 26.8C75.5319 26.6748 75.6014 26.5148 75.6501 26.3201C75.7058 26.1253 75.7405 25.9444 75.7545 25.7775C75.7684 25.6036 75.7753 25.3984 75.7753 25.1619V16.8672C75.7753 16.6376 75.7684 16.4394 75.7545 16.2725C75.7405 16.0986 75.7058 15.9177 75.6501 15.7299C75.6014 15.5351 75.5319 15.3786 75.4414 15.2604C75.351 15.1421 75.2223 15.0448 75.0554 14.9682C74.8885 14.8848 74.6902 14.843 74.4607 14.843C74.2311 14.843 74.0329 14.8848 73.866 14.9682C73.706 15.0448 73.5808 15.1421 73.4904 15.2604C73.3999 15.3717 73.3304 15.5282 73.2817 15.7299C73.233 15.9247 73.2017 16.102 73.1878 16.262C73.1808 16.422 73.1773 16.6237 73.1773 16.8672V25.1619C73.1773 25.4054 73.1808 25.6106 73.1878 25.7775C73.2017 25.9375 73.233 26.1183 73.2817 26.3201C73.3304 26.5148 73.3999 26.6713 73.4904 26.7896C73.5808 26.9078 73.706 27.0087 73.866 27.0921ZM92.0727 29.9197C90.4311 29.9197 89.2069 29.4849 88.4 28.6155C87.6001 27.739 87.1689 26.3444 87.1063 24.4316L90.3824 23.9307C90.3963 25.0158 90.525 25.8053 90.7685 26.2992C91.0189 26.7861 91.391 27.0295 91.8849 27.0295C92.5318 27.0295 92.8552 26.6122 92.8552 25.7775C92.8552 25.3115 92.7717 24.8837 92.6048 24.4942C92.4379 24.0977 92.2327 23.7603 91.9892 23.4821C91.7458 23.2039 91.4049 22.877 90.9667 22.5013L89.433 21.1763C89.0643 20.8563 88.7583 20.5642 88.5148 20.2998C88.2713 20.0355 88.0314 19.7225 87.7949 19.3608C87.5653 18.9922 87.3949 18.5852 87.2836 18.1401C87.1723 17.6949 87.1167 17.2045 87.1167 16.6689C87.1167 15.2291 87.5479 14.1162 88.4105 13.3302C89.273 12.5442 90.4555 12.1477 91.9579 12.1407C92.4726 12.1407 92.9387 12.1964 93.356 12.3077C93.7803 12.419 94.1351 12.565 94.4202 12.7459C94.7124 12.9267 94.9663 13.1563 95.1819 13.4345C95.4045 13.7058 95.5784 13.9805 95.7036 14.2588C95.8357 14.53 95.9436 14.8396 96.027 15.1874C96.1175 15.5282 96.1766 15.8412 96.2044 16.1264C96.2392 16.4116 96.2635 16.7176 96.2774 17.0445L92.97 17.4723C92.963 17.1802 92.9526 16.9402 92.9387 16.7524C92.9317 16.5576 92.9143 16.3524 92.8865 16.1368C92.8587 15.9212 92.8204 15.7473 92.7717 15.6151C92.723 15.483 92.657 15.3612 92.5735 15.25C92.497 15.1317 92.3961 15.0482 92.2709 14.9995C92.1527 14.9509 92.0101 14.93 91.8431 14.9369C91.5093 14.9439 91.2519 15.0865 91.071 15.3647C90.8971 15.636 90.8102 15.9421 90.8102 16.2829C90.8102 16.6098 90.8485 16.9089 90.925 17.1802C91.0084 17.4445 91.1476 17.7019 91.3423 17.9523C91.544 18.2027 91.7075 18.3905 91.8327 18.5157C91.9579 18.6409 92.1666 18.8357 92.4587 19.1L93.9299 20.3937C94.3333 20.7554 94.6811 21.1032 94.9732 21.4371C95.2654 21.764 95.5436 22.1396 95.8079 22.5639C96.0722 22.9813 96.2705 23.4438 96.4026 23.9516C96.5418 24.4524 96.6113 24.9915 96.6113 25.5688C96.6113 26.8209 96.194 27.8608 95.3593 28.6885C94.5246 29.5093 93.429 29.9197 92.0727 29.9197ZM102.277 19.653H103.498C104.186 19.653 104.642 19.4791 104.864 19.1313C105.094 18.7765 105.209 18.1783 105.209 17.3367C105.209 17.0376 105.198 16.7872 105.177 16.5855C105.163 16.3837 105.122 16.1786 105.052 15.9699C104.99 15.7612 104.896 15.5977 104.77 15.4795C104.652 15.3543 104.485 15.2534 104.27 15.1769C104.054 15.1004 103.793 15.0622 103.487 15.0622H102.277V19.653ZM98.4581 29.6797V12.3807H104.228C105.758 12.3807 106.902 12.8085 107.661 13.664C108.419 14.5196 108.798 15.7647 108.798 17.3993C108.798 18.0462 108.739 18.627 108.62 19.1417C108.509 19.6564 108.342 20.0912 108.12 20.4459C107.897 20.8007 107.64 21.1032 107.348 21.3536C107.055 21.5971 106.715 21.7884 106.325 21.9275C105.936 22.0666 105.536 22.1675 105.125 22.2301C104.722 22.2857 104.273 22.3135 103.779 22.3135H102.277V29.6797H98.4581ZM110.582 29.6797V12.3807H118.355V14.9891H114.401V19.2669H117.416V21.9275H114.401V27.0921H118.397V29.6797H110.582ZM120.139 29.6797V12.3807H127.912V14.9891H123.958V19.2669H126.973V21.9275H123.958V27.0921H127.954V29.6797H120.139ZM129.696 29.6797V12.3807H134.047C135.181 12.3807 136.12 12.4816 136.864 12.6833C137.616 12.885 138.214 13.2154 138.659 13.6745C139.104 14.1336 139.417 14.697 139.598 15.3647C139.779 16.0255 139.869 16.8567 139.869 17.8584V24.0977C139.869 25.1063 139.775 25.9514 139.587 26.6331C139.407 27.3078 139.094 27.8816 138.648 28.3546C138.21 28.8207 137.619 29.158 136.875 29.3667C136.137 29.5754 135.212 29.6797 134.099 29.6797H129.696ZM133.515 27.0295H134.099C134.392 27.0295 134.638 27.0122 134.84 26.9774C135.049 26.9356 135.219 26.8661 135.351 26.7687C135.491 26.6713 135.598 26.5705 135.675 26.4661C135.758 26.3548 135.817 26.1983 135.852 25.9966C135.894 25.7879 135.918 25.5932 135.925 25.4123C135.939 25.2245 135.946 24.9741 135.946 24.6611V17.2219C135.946 16.7837 135.929 16.4463 135.894 16.2099C135.859 15.9734 135.779 15.7577 135.654 15.563C135.529 15.3682 135.341 15.236 135.091 15.1665C134.847 15.09 134.513 15.0517 134.089 15.0517H133.515V27.0295Z" fill="#CB313A"/>
<path d="M57.0545 45.6797V34.9424H59.4247V44.0736H61.8856V45.6797H57.0545ZM62.9412 45.6797V34.9424H65.3115V45.6797H62.9412ZM66.8787 45.6797L67.0535 34.9424H69.5921L70.7837 41.2242L72.066 34.9424H74.5204L74.6953 45.6797H72.9985L72.8237 38.556L71.5608 45.6797H70.0778L68.7567 38.5042L68.5948 45.6797H66.8787ZM76.2689 45.6797V34.9424H78.6392V45.6797H76.2689ZM81.2296 45.6797V36.6974H79.5782V34.9424H85.2383V36.6974H83.6063V45.6797H81.2296ZM89.5643 45.6797V34.9424H94.2141V36.5549H91.9345V39.2554H93.8968V40.9133H91.9345V45.6797H89.5643ZM94.6156 45.6797L96.7074 39.8901L94.7063 34.9424H96.9535L98.1256 37.8437L99.0711 34.9424H101.066L99.1812 40.5053L101.267 45.6797H99.0452L97.7435 42.4805L96.5843 45.6797H94.6156Z" fill="white"/>
<path fill-rule="evenodd" clip-rule="evenodd" d="M14.9165 12.7319C13.9713 12.7319 13.2051 13.4982 13.2051 14.4434V45.3534C13.2051 46.2986 13.9713 47.0648 14.9165 47.0648H45.8265C46.7717 47.0648 47.5379 46.2986 47.5379 45.3534V14.4434C47.5379 13.4982 46.7717 12.7319 45.8265 12.7319H14.9165ZM22.8396 20.6558C21.8944 20.6558 21.1282 21.422 21.1282 22.3672V37.4312C21.1282 38.3764 21.8944 39.1427 22.8396 39.1427H37.9037C38.8489 39.1427 39.6151 38.3764 39.6151 37.4312V22.3672C39.6151 21.422 38.8489 20.6558 37.9037 20.6558H22.8396Z" fill="white"/>
</svg>
