<svg width="181" height="35" viewBox="0 0 181 35" fill="none" xmlns="http://www.w3.org/2000/svg">
<path fill-rule="evenodd" clip-rule="evenodd" d="M10.0557 7.76709C8.95109 7.76709 8.05566 8.66252 8.05566 9.76709V26.7115C8.05566 27.8161 8.95109 28.7115 10.0557 28.7115H27.0001C28.1047 28.7115 29.0001 27.8161 29.0001 26.7115V9.76709C29.0001 8.66252 28.1047 7.76709 27.0001 7.76709H10.0557ZM14.889 12.6004C13.7844 12.6004 12.889 13.4959 12.889 14.6004V21.8782C12.889 22.9828 13.7844 23.8782 14.889 23.8782H22.1668C23.2713 23.8782 24.1668 22.9828 24.1668 21.8782V14.6004C24.1668 13.4959 23.2713 12.6004 22.1668 12.6004H14.889Z" fill="#CB313A"/>
<path fill-rule="evenodd" clip-rule="evenodd" d="M2 0C0.895431 0 0 0.895433 0 2V18.6709C0 19.7754 0.895433 20.6709 2 20.6709H4.13418V6.13398C4.13418 5.02941 5.02961 4.13398 6.13418 4.13398H20.6709V2C20.6709 0.89543 19.7754 0 18.6709 0H2Z" fill="#CB313A"/>
<path d="M42.192 14.752H39.264V11.56H49.416V14.752H46.512V31H42.192V14.752ZM51.1275 11.56H56.4795C58.6075 11.56 60.2155 11.936 61.3035 12.688C62.3915 13.44 62.9355 14.776 62.9355 16.696C62.9355 17.992 62.7675 19.024 62.4315 19.792C62.0955 20.56 61.4715 21.16 60.5595 21.592L63.2235 31H58.7835L56.6475 22.288H55.4235V31H51.1275V11.56ZM56.6235 19.816C57.4875 19.816 58.0875 19.592 58.4235 19.144C58.7755 18.68 58.9515 17.992 58.9515 17.08C58.9515 16.2 58.7915 15.544 58.4715 15.112C58.1515 14.664 57.5995 14.44 56.8155 14.44H55.4235V19.816H56.6235ZM68.2541 11.56H73.1501L76.7741 31H72.8141L72.1661 26.896H69.3101L68.6381 31H64.5821L68.2541 11.56ZM71.7581 24.328L70.7261 16.744L69.6941 24.328H71.7581ZM78.7369 11.56H83.6569C85.3369 11.56 86.6489 11.768 87.5929 12.184C88.5369 12.6 89.2009 13.256 89.5849 14.152C89.9849 15.032 90.1849 16.216 90.1849 17.704V24.76C90.1849 26.264 89.9849 27.464 89.5849 28.36C89.2009 29.256 88.5369 29.92 87.5929 30.352C86.6649 30.784 85.3689 31 83.7049 31H78.7369V11.56ZM83.7049 28.024C84.3289 28.024 84.7849 27.936 85.0729 27.76C85.3769 27.568 85.5689 27.304 85.6489 26.968C85.7289 26.616 85.7689 26.104 85.7689 25.432V16.96C85.7689 16.336 85.7209 15.864 85.6249 15.544C85.5449 15.208 85.3529 14.96 85.0489 14.8C84.7609 14.64 84.3049 14.56 83.6809 14.56H83.0329V28.024H83.7049ZM92.7994 11.56H101.535V14.488H97.0954V19.312H100.479V22.288H97.0954V28.096H101.583V31H92.7994V11.56ZM121.817 31.288C119.897 31.288 118.529 30.704 117.713 29.536C116.897 28.368 116.489 26.712 116.489 24.568V18.04C116.489 15.848 116.929 14.176 117.809 13.024C118.705 11.872 120.209 11.296 122.321 11.296C124.353 11.296 125.809 11.792 126.689 12.784C127.569 13.776 128.009 15.176 128.009 16.984V18.232H123.809V16.648C123.809 15.88 123.721 15.304 123.545 14.92C123.369 14.52 122.977 14.32 122.368 14.32C121.745 14.32 121.337 14.536 121.145 14.968C120.969 15.4 120.881 16 120.881 16.768V25.768C120.881 26.536 120.993 27.144 121.217 27.592C121.457 28.024 121.881 28.24 122.489 28.24C123.609 28.24 124.169 27.4 124.169 25.72V23.44H122.417V20.92H128.033V31H125.201L124.961 29.392C124.353 30.656 123.305 31.288 121.817 31.288ZM130.721 11.56H139.457V14.488H135.017V19.312H138.401V22.288H135.017V28.096H139.505V31H130.721V11.56ZM141.456 11.56H144.48L148.464 20.92V11.56H152.016V31H149.112L145.128 20.92V31H141.456V11.56ZM160.477 31.288C158.365 31.288 156.861 30.736 155.965 29.632C155.085 28.512 154.645 26.904 154.645 24.808V17.8C154.645 15.656 155.085 14.04 155.965 12.952C156.845 11.848 158.349 11.296 160.477 11.296C162.509 11.296 163.949 11.784 164.797 12.76C165.645 13.736 166.069 15.12 166.069 16.912V18.592H161.869V16.648C161.869 15.896 161.789 15.32 161.629 14.92C161.469 14.52 161.085 14.32 160.477 14.32C159.869 14.32 159.469 14.536 159.277 14.968C159.085 15.384 158.989 15.968 158.989 16.72V25.864C158.989 26.632 159.085 27.224 159.277 27.64C159.485 28.04 159.885 28.24 160.477 28.24C161.069 28.24 161.445 28.04 161.605 27.64C161.781 27.224 161.869 26.632 161.869 25.864V23.824H166.069V25.504C166.069 27.328 165.645 28.752 164.797 29.776C163.949 30.784 162.509 31.288 160.477 31.288ZM170.786 23.056L167.09 11.56H171.146L172.994 17.704L174.65 11.56H178.538L174.914 23.056V31H170.786V23.056Z" fill="white"/>
<path d="M106.27 11.56H111.166L114.79 31H110.83L110.182 26.896H107.326L106.654 31H102.598L106.27 11.56ZM109.774 24.328L108.742 16.744L107.71 24.328H109.774Z" fill="#CB313A"/>
<path d="M39 33.4H102.087V34.6H39V33.4ZM115.312 33.4H178.73V34.6H115.312V33.4Z" fill="white"/>
<path d="M102.094 33.4H115.318V34.6H102.094V33.4Z" fill="#CB313A"/>
</svg>
