<svg width="33" height="33" viewBox="0 0 33 33" fill="none" xmlns="http://www.w3.org/2000/svg">
<path d="M3.21087 18.4612C5.74032 14.8202 7.2282 12.4744 8.313 10.7409C4.14408 11.1096 0.148102 16.297 0.148102 16.297L2.8998 19.0486C2.97965 18.8452 3.0816 18.6476 3.21087 18.4612Z" fill="#ccc"/>
<path d="M13.9548 30.1036L16.7047 32.8534C16.7047 32.8534 21.8919 28.8577 22.2607 24.6889C20.5277 25.7733 18.1827 27.2606 14.5405 29.7907C14.3563 29.9186 14.1598 30.023 13.9548 30.1036Z" fill="#ddd"/>
<path d="M9.77288 28.6816C9.30083 28.8723 8.8369 29.075 8.35321 29.2367C7.06132 29.6685 5.73079 29.9602 4.38179 30.1464C3.81633 30.2244 3.24564 30.2906 2.674 30.3339C2.67944 30.2634 2.68467 30.1927 2.69065 30.1223C2.80861 28.7477 3.01773 27.3804 3.3556 26.0419C3.51839 25.396 3.72613 24.7681 3.94913 24.141C4.0878 23.7512 4.26084 23.3781 4.43538 23.005L4.13285 22.7027C3.46 23.1547 2.87479 23.7258 2.37819 24.372C1.643 25.3288 1.09196 26.4127 0.706698 27.5549C0.292828 28.7814 0.0460213 30.0803 0.00759121 31.3752C0.00214695 31.5571 -0.0103428 31.7429 0.0178392 31.9235C0.0541343 32.1566 0.156508 32.3772 0.310335 32.5561C0.46256 32.7329 0.662931 32.8665 0.884971 32.9381C1.07136 32.9982 1.25881 32.9993 1.45213 32.9978C2.62767 32.988 3.82146 32.7838 4.94671 32.4494C7.00475 31.8379 9.08242 30.6876 10.3002 28.8699L10.0058 28.5757C9.92863 28.612 9.85124 28.6475 9.77288 28.6816Z" fill="#ddd"/>
<path d="M32.6659 0.336493C32.6659 0.336493 32.6657 0.336386 32.6655 0.336173C32.4514 0.122139 32.1611 0.0022583 31.859 0.0022583C31.8515 0.0022583 31.844 0.00236505 31.8365 0.0024718C28.1632 0.0745282 19.1005 0.761572 14.2875 5.57472C12.1027 7.75958 11.3926 8.8969 9.83614 11.3893C8.71526 13.1838 7.18073 15.6417 4.37619 19.6783C4.06117 20.132 4.11593 20.7462 4.50653 21.1366L11.8646 28.4947C12.0854 28.7156 12.3778 28.8292 12.6721 28.8292C12.8983 28.8292 13.1255 28.7621 13.3228 28.6252C17.361 25.82 19.8179 24.2858 21.6117 23.1653C24.1039 21.609 25.2415 20.8987 27.4268 18.7136C32.2482 13.892 32.9305 4.83516 32.9996 1.16498C33.0057 0.855085 32.8851 0.555971 32.6659 0.336493ZM24.1455 14.2201C22.6641 15.7014 20.2626 15.7014 18.7813 14.2201C17.2997 12.7387 17.2999 10.3374 18.7815 8.85612C20.2626 7.37475 22.6641 7.37453 24.1455 8.8558C25.6264 10.3371 25.6266 12.7389 24.1455 14.2201Z" fill="#ddd"/>
</svg>
